<?xml version="1.0" encoding="utf-8"?>
<!-- Generator: Adobe Illustrator 21.0.2, SVG Export Plug-In . SVG Version: 6.00 Build 0)  -->
<svg version="1.2" baseProfile="tiny" xmlns="http://www.w3.org/2000/svg" xmlns:xlink="http://www.w3.org/1999/xlink" x="0px"
	 y="0px" viewBox="0 0 256 256" xml:space="preserve">
<g id="img" display="none">
</g>
<g id="Layer_4">
</g>
<g id="Layer_6" display="none">
</g>
<g id="boxes">
</g>
<g id="border" display="none">
</g>
<g id="arrows">
	<g>
		<path d="M127.7,42.6c8.7,0,17.5,1.4,26.1,4.1c28.8,9.2,50.2,32.9,57.1,61.6l-72.6,1.8l13.5,32.6l95-2.4l-0.6-16.6
			c-1.8-49.7-34.9-93.2-82.2-108.3c-21.5-6.9-44.1-7.3-65.4-1.8L111,44.4C116.5,43.3,122.1,42.6,127.7,42.6z"/>
		<path d="M174.9,199.1l12.7,30.8c15.4-9,28.9-21.5,39.1-37.1l-27.5-18C192.7,184.7,184.4,192.9,174.9,199.1z"/>
		<path d="M101.8,209.3c-21.7-6.9-39.4-21.9-49.9-42.2c-3.6-7-6.2-14.3-7.7-21.7l65.2-1.7l-13.5-32.6l-52.1,1.3
			c0.7-3.5,1.5-7,2.6-10.4c5.3-16.6,15.3-30.8,28.7-41.2L62.2,29.6C39.9,44.4,23.3,66.2,15.1,92c-9.6,30.1-6.9,62.1,7.6,90.2
			c14.5,28.1,39,48.8,69.1,58.4c11.8,3.8,23.8,5.6,35.8,5.6c7.8,0,15.6-0.8,23.1-2.3l-12.9-31.2
			C125.9,214.1,113.7,213.1,101.8,209.3z"/>
	</g>
</g>
</svg>
