<?xml version="1.0" encoding="utf-8"?>
<!-- Generator: Adobe Illustrator 21.0.2, SVG Export Plug-In . SVG Version: 6.00 Build 0)  -->
<svg version="1.2" baseProfile="tiny" xmlns="http://www.w3.org/2000/svg" xmlns:xlink="http://www.w3.org/1999/xlink" x="0px"
	 y="0px" viewBox="0 0 256 256" xml:space="preserve">
<g id="img" display="none">
	<g id="_x36_BelZd.tif" display="inline">
		<image width="212" height="212" id="Layer_0_1_" xlink:href="2FBF3A9FB636FDCD.png"  transform="matrix(1 0 0 1 21 22)">
		</image>
	</g>
</g>
<g id="Layer_4">
</g>
<g id="Layer_6" display="none">
</g>
<g id="boxes">
</g>
<g id="border" display="none">
</g>
<g id="arrows">
	<g>
		<path fill="#254AB5" d="M214.2,15.9c3.8-3.2,7.2-4.8,10.4-4.8s5.8,0.8,8,2.3c2.2,1.5,3.9,3.5,5.3,6c2.7,4.8,4,10.8,4,18.2
			s-1.2,15.3-3.6,23.9c-2.4,8.6-5.6,17.4-9.7,26.4s-8.7,18-14.1,27.1s-11,18-16.9,26.8c-5.9,8.7-12,17.2-18.2,25.5
			c-6.2,8.2-12.1,15.9-17.8,23.1c-5.7,7.2-11,13.7-15.8,19.6c-4.8,5.9-8.9,11-12.2,15.2c-8.4,16.9-17.6,25.4-27.8,25.4
			c-6.7,0-14.7-3.3-24-9.8c-9.7-6.8-14.5-13.1-14.5-18.9c0-4.8,3.5-10.3,10.6-16.6c1.7-1.7,3.3-2.9,4.7-3.7
			c9.6-17.1,17.4-40.4,23.5-69.7c3.4-16.7,5.1-32,5.1-46c0-22.6-4.7-38.1-14.2-46.3c-4.4-3.8-9.4-5.7-14.9-5.7s-10.5,1.2-15,3.7
			c-4.5,2.5-8.7,5.9-12.6,10.2c-8.7,9.8-13.1,20.9-13.1,33.1c0,10.1,4.7,19.7,14.2,28.7c-3.5,4.8-8.9,8.8-16.3,12.1
			c-2.1,0.9-4.2,1.4-6.4,1.4c-2.1,0-4.5-0.6-7.2-1.9c-2.7-1.3-5.2-3.1-7.4-5.5c-4.7-5.4-7-11.7-7-18.9s1-13.9,3-20
			c2-6.2,4.7-12.1,8.2-17.7c3.5-5.6,7.6-10.8,12.3-15.6c4.7-4.8,9.7-9,15-12.6c11.4-7.5,22.4-11.2,32.9-11.2
			c10.5,0,19.5,1.9,26.8,5.8s13.6,9.1,18.9,15.8c5.3,6.7,9.6,14.5,13,23.5c7.2,18.9,10.8,41,10.8,66.4c0,9-0.5,17.9-1.4,26.8
			c21-19.8,37-37.9,48-54.3c14.8-22,22.2-42.6,22.2-61.9C221.3,31,218.9,22.3,214.2,15.9z"/>
	</g>
</g>
</svg>
