<?xml version="1.0" encoding="utf-8"?>
<!-- Generator: Adobe Illustrator 21.0.2, SVG Export Plug-In . SVG Version: 6.00 Build 0)  -->
<svg version="1.2" baseProfile="tiny" xmlns="http://www.w3.org/2000/svg" xmlns:xlink="http://www.w3.org/1999/xlink" x="0px"
	 y="0px" viewBox="0 0 256 256" xml:space="preserve">
<g id="img" display="none">
	<g id="_x36_BelZd.tif" display="inline">
		<image width="212" height="212" id="Layer_0_1_" xlink:href="5B6EE17FF5B62C.png"  transform="matrix(1 0 0 1 21 22)">
		</image>
	</g>
</g>
<g id="Layer_4">
</g>
<g id="Layer_6" display="none">
</g>
<g id="boxes">
</g>
<g id="border" display="none">
</g>
<g id="arrows">
	<path fill="#3FA9F5" d="M34.5,46.3c29.6,0,59.3,0.1,88.9,0c2.6,0,3.7,0.8,4.4,3.3c12.5,41.3,25.1,82.5,37.7,123.8
		c0.3,1,0.7,2.1,1.4,3.8c13-44,25.9-87.3,38.7-130.6c7.5,0,14.7,0,22.4,0c-17.7,58.1-35.3,115.9-52.9,174c-1.1,0-2.1,0-3.1,0
		c-27.1,0-54.1,0-81.2,0.1c-2.5,0-3.5-0.7-4.2-3.1C69.7,161.8,52.7,106.2,35.8,50.5c-0.3-1-0.8-2-1.3-3
		C34.5,47.1,34.5,46.7,34.5,46.3z"/>
</g>
</svg>
